<?xml version="1.0" standalone="no"?>
<!DOCTYPE svg PUBLIC "-//W3C//DTD SVG 20010904//EN"
 "http://www.w3.org/TR/2001/REC-SVG-20010904/DTD/svg10.dtd">
<svg version="1.0" xmlns="http://www.w3.org/2000/svg"
 width="512.000000pt" height="512.000000pt" viewBox="0 0 512.000000 512.000000"
 preserveAspectRatio="xMidYMid meet">
<metadata>
Created by potrace 1.11, written by Peter Selinger 2001-2013
</metadata>
<g transform="translate(0.000000,512.000000) scale(0.100000,-0.100000)"
fill="#000000" stroke="none">
<path d="M2330 5110 c-329 -33 -601 -110 -895 -254 -272 -134 -480 -283 -692
-498 -209 -210 -346 -404 -479 -673 -124 -253 -189 -460 -236 -747 -31 -195
-32 -555 0 -753 45 -284 117 -512 243 -764 201 -406 503 -747 886 -1002 215
-142 533 -281 786 -343 223 -55 352 -69 617 -69 265 0 394 14 617 69 253 62
571 201 786 343 389 259 688 599 893 1016 124 254 189 460 236 747 31 192 31
564 0 756 -47 287 -112 493 -236 747 -134 272 -283 480 -498 692 -388 385
-870 628 -1413 713 -148 23 -476 34 -615 20z m1130 -1206 c198 -50 390 -232
454 -429 25 -79 35 -185 25 -274 -17 -150 -78 -277 -186 -384 -127 -125 -275
-189 -448 -191 -119 -1 -183 13 -290 64 -178 86 -309 248 -356 440 -17 71 -17
220 0 290 88 358 445 573 801 484z m-1826 -304 l191 -189 191 189 c201 201
208 206 269 178 15 -7 33 -24 41 -39 32 -62 26 -70 -171 -269 -102 -102 -185
-190 -185 -195 0 -5 83 -93 185 -195 174 -175 185 -188 185 -224 0 -52 -44
-96 -96 -96 -36 0 -49 11 -224 185 -102 102 -190 185 -195 185 -5 0 -93 -83
-195 -185 -199 -197 -207 -203 -269 -171 -15 8 -32 26 -39 41 -28 60 -23 68
178 269 l189 191 -189 191 c-162 162 -190 194 -190 220 1 59 45 103 104 104
25 0 58 -28 220 -190z m344 -1121 c187 -46 355 -185 437 -364 45 -96 60 -165
59 -270 0 -112 -15 -178 -64 -280 -109 -227 -332 -367 -585 -368 -181 0 -322
59 -455 193 -134 133 -193 272 -193 455 0 420 395 732 801 634z m1122 -304
c102 -102 190 -185 195 -185 5 0 93 83 195 185 197 195 205 201 265 173 15 -7
33 -24 41 -39 32 -62 27 -70 -176 -273 l-189 -191 189 -191 c201 -201 206
-209 178 -269 -7 -15 -24 -33 -39 -41 -62 -32 -70 -27 -274 176 l-190 190
-185 -185 c-102 -102 -195 -188 -207 -191 -60 -16 -123 32 -123 92 0 36 11 49
185 224 102 102 185 190 185 195 0 5 -83 93 -185 195 -156 157 -185 191 -185
216 0 61 43 104 104 104 25 0 59 -29 216 -185z"/>
<path d="M3188 3719 c-101 -23 -218 -107 -274 -195 -168 -262 -35 -611 261
-688 160 -42 321 0 436 114 182 180 184 466 5 646 -109 109 -281 158 -428 123z"/>
<path d="M1710 2286 c-197 -53 -340 -238 -340 -441 0 -248 207 -455 455 -455
207 0 398 151 444 351 15 64 13 156 -4 224 -40 155 -178 288 -336 324 -59 14
-164 12 -219 -3z"/>
</g>
</svg>
